<svg id="visual" viewBox="0 0 960 540" width="960" height="540" xmlns="http://www.w3.org/2000/svg" xmlns:xlink="http://www.w3.org/1999/xlink" version="1.1"><rect width="960" height="540" fill="#001829"></rect><g><g transform="translate(256 220)"><path d="M0 -124L107.4 -62L107.4 62L0 124L-107.4 62L-107.4 -62Z" fill="#00cfa2"></path></g><g transform="translate(141 528)"><path d="M0 -93L80.5 -46.5L80.5 46.5L0 93L-80.5 46.5L-80.5 -46.5Z" fill="#00cfa2"></path></g><g transform="translate(948 478)"><path d="M0 -101L87.5 -50.5L87.5 50.5L0 101L-87.5 50.5L-87.5 -50.5Z" fill="#00cfa2"></path></g><g transform="translate(424 23)"><path d="M0 -23L19.9 -11.5L19.9 11.5L0 23L-19.9 11.5L-19.9 -11.5Z" fill="#00cfa2"></path></g><g transform="translate(646 510)"><path d="M0 -31L26.8 -15.5L26.8 15.5L0 31L-26.8 15.5L-26.8 -15.5Z" fill="#00cfa2"></path></g><g transform="translate(761 234)"><path d="M0 -45L39 -22.5L39 22.5L0 45L-39 22.5L-39 -22.5Z" fill="#00cfa2"></path></g><g transform="translate(2 291)"><path d="M0 -21L18.2 -10.5L18.2 10.5L0 21L-18.2 10.5L-18.2 -10.5Z" fill="#00cfa2"></path></g><g transform="translate(51 10)"><path d="M0 -82L71 -41L71 41L0 82L-71 41L-71 -41Z" fill="#00cfa2"></path></g><g transform="translate(399 531)"><path d="M0 -71L61.5 -35.5L61.5 35.5L0 71L-61.5 35.5L-61.5 -35.5Z" fill="#00cfa2"></path></g><g transform="translate(929 26)"><path d="M0 -93L80.5 -46.5L80.5 46.5L0 93L-80.5 46.5L-80.5 -46.5Z" fill="#00cfa2"></path></g><g transform="translate(505 286)"><path d="M0 -20L17.3 -10L17.3 10L0 20L-17.3 10L-17.3 -10Z" fill="#00cfa2"></path></g></g></svg>